<svg xmlns="http://www.w3.org/2000/svg" viewBox="0 0 535 833" width="535" height="833" fill="none" role="img" aria-label="Flame">
  <path fill="currentColor" fill-rule="evenodd" d="M236.01 830.86 C198.42 827.78 145.63 805.6 112.64 779.03 C108.86 775.99 104.38 772.49 102.67 771.25 C95.51 766.07 68.74 738.21 63.03 730 C61.69 728.08 60.32 726.27 59.99 726 C56.62 723.24 38.09 694.11 32.01 682.02 C-15.81 586.91 -9.65 469.09 47.8 380 C53.44 371.25 63.07 358.74 63.69 359.36 C63.88 359.55 63.29 362.81 62.36 366.6 C59.79 377.2 60.04 399.9 62.85 411.38 C68.53 434.55 83.13 454.93 103.91 468.7 C120.64 479.79 139.09 486.14 144.43 482.64 C148.19 480.17 147.67 477.28 141.85 468.38 C97.72 400.91 104.51 322.46 160.39 254.01 C168.42 244.18 173.9 238.28 195.68 216.05 C221.76 189.43 233.12 174.79 243.56 154.33 C264.73 112.86 265.28 62.11 245.09 14.5 C242.29 7.9 240 2.2 240 1.83 C240 0.35 253.15 6.81 264.5 13.88 C327.82 53.27 363.05 112.97 362.99 180.79 C362.98 195.73 360.83 214.89 357.07 233.7 C347.84 279.8 348.44 304.77 359.36 328.4 C372.09 355.95 407.06 361.28 426.6 338.64 C440.31 322.77 446.05 288.12 440.68 253.72 C438.54 239.99 438.52 240.21 441.62 243.08 C452.84 253.48 474.11 282.59 485.76 303.5 C547.43 414.15 551.36 564.23 495.41 671.9 C486.3 689.43 465.8 722.1 462.1 725 C461.74 725.27 459.02 728.65 456.03 732.5 C450.47 739.68 446.62 744.07 437 754.25 C430.34 761.3 408.6 780.2 401 785.55 C387.81 794.84 378.57 801 377.81 801 C377.37 801 373.07 803.18 368.25 805.85 C329.62 827.23 287.93 835.12 236.01 830.86 Z"/>
</svg>
